<?xml version="1.0" encoding="UTF-8"?>
<!--Generator: Apple Native CoreSVG 326-->
<!DOCTYPE svg
PUBLIC "-//W3C//DTD SVG 1.1//EN"
       "http://www.w3.org/Graphics/SVG/1.1/DTD/svg11.dtd">
<svg version="1.1" xmlns="http://www.w3.org/2000/svg" xmlns:xlink="http://www.w3.org/1999/xlink" viewBox="0 0 13.2186 17.5529">
 <g>
  <rect height="17.5529" opacity="0" width="13.2186" x="0" y="0"/>
  <path d="M0 8.77158C0 9.16788 0.140682 9.49762 0.465972 9.8167L7.98031 17.1677C8.23017 17.4242 8.53508 17.5463 8.89767 17.5463C9.63528 17.5463 10.2278 16.9635 10.2278 16.2353C10.2278 15.8664 10.0707 15.5367 9.80882 15.2744L3.12799 8.76847L9.80882 2.26873C10.0738 2.00335 10.2278 1.67005 10.2278 1.31101C10.2278 0.579605 9.63528 0 8.89767 0C8.53197 0 8.23017 0.12205 7.98031 0.371912L0.465972 7.72645C0.143788 8.03887 0.0031054 8.37216 0 8.77158Z" fill="white" fill-opacity="0.85"/>
 </g>
</svg>
